# Blender v2.79 (sub 0) OBJ File: ''
# www.blender.org
mtllib barrel.mtl
o Barrel_LOD3
v -0.826100 2.782804 -0.124944
v -0.824171 2.780901 0.028513
v -0.687467 2.783004 -0.155329
v -0.673808 2.781156 0.041937
v -0.624415 2.782086 -0.047838
v -1.081710 2.909654 0.049707
v -0.980723 2.782079 0.021925
v -0.863208 2.800579 -0.444489
v -1.056411 2.926364 -0.466719
v -1.091503 2.904200 0.044918
v -0.660337 2.880032 -0.749477
v -0.578819 2.784666 -0.778870
v -0.255305 2.783206 -0.932866
v -0.982942 2.859184 -0.538895
v -1.097623 2.099674 0.046797
v 0.046539 2.873821 -1.061960
v 0.129488 2.780370 -0.962015
v -0.439062 2.938579 -1.037842
v -0.437331 2.891041 -1.006592
v 0.659373 2.891619 -0.840404
v 0.446706 2.783869 -0.854668
v 0.722349 2.784312 -0.655963
v 0.962207 2.784606 -0.228230
v 0.357225 2.917578 -1.063184
v 0.152077 2.891271 -1.088180
v 1.130446 2.936630 -0.282327
v 0.932351 2.795203 0.292888
v 0.738202 2.883084 -0.839507
v -0.568095 2.148211 -0.931544
v 0.113174 2.083088 -1.047439
v -1.007375 2.120748 -0.451014
v -0.299181 2.013954 -0.997064
v -1.047503 2.001755 -0.336340
v -1.082043 1.998887 0.043684
v -0.733568 2.015514 -0.829010
v -1.046243 0.971875 -0.332264
v -1.060235 0.802817 0.043391
v -0.867622 1.041697 -0.654633
v -0.495173 0.993933 -0.954884
v -1.072974 0.851036 -0.233578
v -0.773109 0.883660 -0.769660
v -1.081865 0.014982 -0.315681
v -1.102665 0.006847 0.045712
v -1.088430 0.048656 0.018440
v -0.932290 0.049073 -0.498756
v -0.769488 0.009173 -0.845187
v -0.651777 0.051519 -0.846820
v -0.211025 0.049030 -1.042468
v -0.698334 0.014355 -0.847923
v -0.230248 0.013614 -1.103961
v 0.287433 0.051903 -1.027666
v -0.212884 0.863986 -1.073538
v 0.263877 -0.000503 -1.031785
v 0.721678 0.047771 -0.772873
v 0.089352 0.515975 -1.082628
v 0.789970 0.005481 -0.667662
v 0.928071 0.050863 -0.455111
v 1.029212 0.049422 -0.034466
v 0.274716 0.019860 -1.071917
v 0.735039 0.017691 -0.832820
v 1.046680 0.000253 0.088166
v 0.853877 0.048919 0.539996
v 1.073116 0.025824 -0.251799
v 0.965524 0.567070 -0.492935
v 0.724160 -0.003602 0.793846
v 0.673667 0.048219 0.804852
v 0.386648 0.049563 0.992308
v 1.027860 0.022798 0.356503
v 1.026833 0.495778 0.158505
v 0.346646 0.876243 -1.059911
v 1.003046 0.876462 -0.523543
v 0.049494 0.992166 -1.069183
v 0.803701 0.979257 -0.763896
v 0.229196 1.513574 -1.011324
v 0.845010 1.452465 -0.614994
v 0.744549 2.001541 -0.824817
v 1.032233 0.980015 -0.274365
v 0.870824 2.097826 -0.728128
v 1.077054 2.039177 -0.100866
v 1.109081 2.846075 -0.164178
v 1.079953 2.134691 0.035159
v 0.987340 2.887013 0.462320
v 1.007528 2.112205 0.493638
v 0.892944 2.924476 0.608839
v 0.491450 2.903376 0.985039
v 0.816334 2.787970 0.489373
v 0.421216 2.771259 0.875180
v -0.083163 2.796988 0.963274
v 0.473994 2.868435 1.013826
v -0.153698 2.881447 1.094657
v 0.371983 2.105516 1.038509
v -0.154403 2.446643 1.010793
v -0.654129 2.906730 0.931494
v -0.732441 2.886296 0.864789
v -0.734357 2.870332 0.809592
v -0.458500 2.785362 0.851635
v -0.739808 2.766886 0.636219
v -0.929017 2.783391 0.281454
v -0.961624 2.915312 0.560034
v -1.058598 2.868515 0.310634
v -0.912553 2.111344 0.551835
v -0.579998 2.109334 0.947651
v -0.972454 1.998366 0.525227
v -0.651185 1.990874 0.851926
v -0.972520 0.996800 0.516395
v -0.207497 2.011279 1.062457
v -0.450810 0.952519 0.994516
v 0.434218 2.003459 0.996328
v -0.959867 0.882262 0.559215
v -0.024635 0.895394 1.099574
v -0.485730 0.521919 0.988221
v -0.930683 0.524801 0.455093
v -0.991878 0.023689 0.479565
v -0.661869 0.021736 0.875225
v -0.918529 0.003928 0.500635
v -0.910981 0.050366 0.519343
v -0.593201 0.049876 0.889816
v -0.260614 0.015718 1.079363
v -0.256009 0.001555 1.053606
v -0.095183 0.051009 1.065487
v 0.276675 0.017635 1.070297
v 0.740609 0.016656 0.839806
v 0.492252 0.852526 0.996943
v 0.820831 0.502586 0.659858
v 1.016520 0.885703 0.450407
v 0.536307 0.982147 0.943661
v 0.826785 1.014476 0.687855
v 1.027199 1.017258 0.196993
v 0.955726 1.484609 -0.039856
v 1.028033 1.999935 0.320794
v 0.802881 2.018271 0.761294
v 0.644290 1.456166 0.717854
v 0.124415 1.446476 1.011769
v -0.006144 0.056428 0.000826
vt 0.605957 0.529785
vt 0.621582 0.507080
vt 0.623535 0.546875
vt 0.645508 0.519043
vt 0.644531 0.537109
vt 0.989258 0.479004
vt 0.985840 0.498535
vt 0.907227 0.494141
vt 0.916504 0.470703
vt 0.988770 0.468262
vt 0.842773 0.483398
vt 0.835938 0.497559
vt 0.777832 0.497559
vt 0.902832 0.461914
vt 0.989258 0.350098
vt 0.729004 0.483887
vt 0.714844 0.497070
vt 0.798340 0.473145
vt 0.799316 0.466309
vt 0.631836 0.480957
vt 0.660156 0.497070
vt 0.605469 0.497070
vt 0.525879 0.493164
vt 0.685059 0.473633
vt 0.714355 0.467773
vt 0.528320 0.474121
vt 0.442139 0.490234
vt 0.622559 0.465332
vt 0.820313 0.358887
vt 0.719727 0.348145
vt 0.916016 0.353516
vt 0.780273 0.335449
vt 0.933594 0.332031
vt 0.989258 0.331055
vt 0.847656 0.334961
vt 0.935059 0.183105
vt 0.988770 0.155273
vt 0.880371 0.192383
vt 0.809082 0.186523
vt 0.949707 0.160645
vt 0.858887 0.165527
vt 0.940918 0.038086
vt 0.991699 0.036621
vt 0.988281 0.021484
vt 0.908203 0.018555
vt 0.853516 0.031250
vt 0.841309 0.018555
vt 0.769531 0.018066
vt 0.846191 0.038574
vt 0.770508 0.037109
vt 0.695801 0.016602
vt 0.765625 0.161621
vt 0.690430 0.030762
vt 0.620117 0.016113
vt 0.722656 0.109375
vt 0.595703 0.028320
vt 0.563477 0.014648
vt 0.499512 0.014648
vt 0.698730 0.036621
vt 0.624512 0.035156
vt 0.481934 0.028320
vt 0.411621 0.015137
vt 0.529297 0.038086
vt 0.567383 0.116211
vt 0.369141 0.030762
vt 0.358398 0.014160
vt 0.307373 0.014648
vt 0.443115 0.035645
vt 0.470215 0.105469
vt 0.686523 0.163574
vt 0.567383 0.161621
vt 0.728516 0.186035
vt 0.609863 0.182617
vt 0.702148 0.262207
vt 0.589355 0.250977
vt 0.621582 0.331543
vt 0.533203 0.181641
vt 0.600098 0.349609
vt 0.505371 0.336914
vt 0.512695 0.457520
vt 0.485596 0.353516
vt 0.421631 0.462891
vt 0.420166 0.350098
vt 0.396973 0.473633
vt 0.317871 0.475586
vt 0.405518 0.495605
vt 0.316895 0.495117
vt 0.234497 0.488770
vt 0.314697 0.460938
vt 0.225220 0.464355
vt 0.299561 0.349609
vt 0.224121 0.398926
vt 0.151367 0.469727
vt 0.132324 0.460938
vt 0.131958 0.479980
vt 0.171143 0.494141
vt 0.113403 0.494629
vt 0.048798 0.494141
vt 0.008926 0.476074
vt 0.005253 0.493652
vt 0.083740 0.471191
vt 0.008339 0.464844
vt 0.046326 0.459473
vt 0.007698 0.347168
vt 0.086609 0.348145
vt 0.161499 0.348633
vt 0.079590 0.323242
vt 0.009071 0.322754
vt 0.146118 0.324707
vt 0.078430 0.179199
vt 0.008057 0.147461
vt 0.217163 0.326660
vt 0.180908 0.170898
vt 0.310303 0.329590
vt 0.084412 0.159180
vt 0.244385 0.162109
vt 0.175903 0.105957
vt 0.072998 0.105957
vt 0.072388 0.032715
vt 0.008133 0.030273
vt 0.146240 0.033203
vt 0.082214 0.026367
vt 0.003387 0.015137
vt 0.082764 0.012207
vt 0.155640 0.012695
vt 0.211182 0.033203
vt 0.223877 0.027832
vt 0.234497 0.013672
vt 0.288330 0.033203
vt 0.362549 0.033691
vt 0.320313 0.153809
vt 0.389893 0.104492
vt 0.428711 0.162598
vt 0.328369 0.177734
vt 0.384521 0.185547
vt 0.463135 0.187988
vt 0.498291 0.254883
vt 0.443848 0.328613
vt 0.372559 0.331543
vt 0.356689 0.249023
vt 0.269043 0.245605
vt -0.000230 0.650635
vt 0.039398 0.614014
vt 0.012291 0.718506
vt 0.020264 0.577637
vt 0.044281 0.765015
vt 0.050812 0.594727
vt 0.054718 0.627686
vt 0.047333 0.546143
vt 0.094604 0.799194
vt 0.101257 0.512451
vt 0.146606 0.809448
vt 0.156982 0.505371
vt 0.199707 0.803955
vt 0.216919 0.519531
vt 0.265869 0.764404
vt 0.070740 0.604004
vt 0.070435 0.618896
vt 0.278809 0.571289
vt 0.302734 0.691162
vt 0.302490 0.655273
vt 0.464844 0.805298
vt 0.381104 0.792236
vt 0.453613 0.656006
vt 0.524902 0.788208
vt 0.341309 0.758789
vt 0.569336 0.756470
vt 0.312744 0.718506
vt 0.604004 0.692383
vt 0.299316 0.649170
vt 0.603027 0.620117
vt 0.321777 0.576172
vt 0.572266 0.557617
vt 0.373535 0.528076
vt 0.520020 0.519043
vt 0.444824 0.499512
vn -0.6270 0.7283 -0.2765
vn -0.5916 0.6934 0.4113
vn 0.2062 0.8051 -0.5562
vn 0.3883 0.7649 0.5139
vn 0.6702 0.6781 0.3017
vn 0.3147 0.9465 -0.0718
vn 0.2129 0.9742 -0.0753
vn 0.6152 0.7201 0.3209
vn -0.4500 0.4775 -0.7546
vn -0.9642 -0.2616 0.0429
vn 0.3419 0.8592 0.3805
vn 0.4043 0.6877 0.6030
vn 0.1175 0.9445 0.3068
vn -0.8615 -0.1130 -0.4951
vn -0.9638 0.2536 0.0820
vn -0.0579 0.5742 0.8166
vn 0.0163 0.9959 0.0885
vn -0.1011 0.9000 -0.4239
vn -0.3336 -0.4357 -0.8360
vn -0.4222 0.7279 0.5403
vn -0.0550 0.9977 0.0401
vn -0.0125 0.9996 0.0269
vn -0.7184 0.6817 0.1381
vn 0.0665 0.9584 -0.2777
vn 0.1056 -0.3168 -0.9426
vn -0.6466 -0.6238 0.4391
vn -0.3035 0.9378 -0.1689
vn 0.5872 -0.3350 -0.7369
vn -0.4396 0.3073 -0.8440
vn -0.0039 0.1371 -0.9906
vn -0.8470 0.2849 -0.4488
vn -0.0978 -0.2698 -0.9579
vn -0.8860 -0.3239 -0.3318
vn -0.9774 -0.1609 0.1374
vn -0.6273 -0.2298 -0.7441
vn -0.8593 0.3694 -0.3538
vn -0.9844 -0.1686 0.0510
vn -0.8593 0.1594 -0.4860
vn -0.3640 0.3249 -0.8729
vn -0.9418 -0.3322 -0.0508
vn -0.6671 -0.3316 -0.6671
vn -0.8380 0.4872 -0.2456
vn -0.9325 0.3550 0.0663
vn 0.6105 -0.7838 0.1142
vn 0.6275 -0.7064 0.3275
vn -0.3873 -0.8254 -0.4107
vn 0.4291 -0.7126 0.5551
vn 0.1305 -0.7395 0.6604
vn -0.5481 0.5636 -0.6180
vn -0.2092 0.4370 -0.8748
vn -0.3680 0.1602 0.9159
vn -0.2179 -0.2942 -0.9306
vn 0.2988 0.8629 -0.4077
vn -0.5326 0.6905 0.4894
vn 0.3317 0.0741 -0.9405
vn 0.6348 0.6053 -0.4803
vn -0.5533 0.7958 0.2460
vn -0.9221 0.3573 0.1488
vn 0.4633 -0.3859 -0.7978
vn 0.7690 0.3809 -0.5134
vn -0.1168 0.9931 0.0145
vn -0.7736 -0.3845 -0.5036
vn 0.9401 0.1146 -0.3211
vn 0.8356 -0.0667 -0.5453
vn 0.2611 0.9638 0.0548
vn -0.6565 -0.1402 -0.7412
vn -0.3748 0.0204 -0.9269
vn 0.8932 0.4129 0.1779
vn 0.9852 0.0589 0.1609
vn 0.2542 -0.4341 -0.8643
vn 0.8478 -0.3589 -0.3904
vn 0.0196 0.4266 -0.9042
vn 0.6942 0.3726 -0.6158
vn 0.1599 -0.0195 -0.9869
vn 0.7878 0.0274 -0.6153
vn 0.5372 -0.3882 -0.7489
vn 0.9546 0.2553 -0.1532
vn 0.7233 0.4261 -0.5434
vn 0.9521 -0.2726 -0.1382
vn 0.9570 -0.2166 -0.1930
vn 0.9823 0.1775 0.0592
vn 0.7104 -0.5287 0.4646
vn 0.7818 0.4675 0.4125
vn -0.0893 0.9643 0.2494
vn -0.2291 0.8787 -0.4189
vn -0.2438 0.9615 -0.1269
vn -0.1619 0.9474 -0.2761
vn 0.0760 0.8690 -0.4890
vn 0.4065 -0.2723 0.8721
vn -0.0029 -0.5256 0.8507
vn 0.2795 0.4056 0.8703
vn -0.0529 -0.0241 0.9983
vn 0.0759 -0.6789 -0.7303
vn -0.6616 0.2217 0.7164
vn 0.5803 0.5642 -0.5873
vn -0.0342 0.9986 0.0404
vn 0.0661 0.9929 -0.0993
vn 0.1570 0.9870 0.0337
vn 0.6714 0.7343 0.0999
vn 0.2709 0.9625 0.0104
vn -0.1096 0.9937 -0.0248
vn -0.9775 -0.2064 0.0428
vn -0.9105 -0.3129 0.2703
vn -0.9109 0.4027 0.0899
vn -0.7942 0.3964 0.4606
vn -0.4249 0.4755 0.7703
vn -0.7959 -0.4039 0.4509
vn -0.9575 -0.2540 0.1368
vn -0.5769 -0.2394 0.7809
vn -0.8575 0.3093 0.4111
vn -0.9857 -0.1675 0.0195
vn -0.1929 -0.4214 0.8861
vn -0.3724 0.1137 0.9211
vn 0.3744 -0.3586 0.8551
vn -0.7738 -0.4596 0.4360
vn -0.0356 0.0197 0.9992
vn -0.5282 0.0039 0.8491
vn -0.9157 -0.0195 0.4014
vn -0.7183 -0.4501 0.5305
vn -0.4973 0.6513 0.5732
vn -0.5318 0.5080 0.6776
vn -0.4673 0.8635 0.1897
vn 0.5941 -0.7925 -0.1376
vn 0.7740 0.3805 -0.5060
vn 0.5329 -0.1912 -0.8243
vn -0.1481 -0.6981 0.7005
vn -0.1140 0.9593 0.2585
vn -0.0386 0.7082 -0.7050
vn 0.1951 0.4763 0.8574
vn 0.6237 -0.4899 0.6091
vn 0.4298 -0.3509 0.8320
vn 0.9054 0.0356 0.4231
vn 0.8539 -0.4053 0.3266
vn 0.3817 0.5154 0.7673
vn 0.7303 0.3039 0.6118
vn 0.9453 0.3177 0.0745
vn 0.9963 -0.0433 -0.0748
vn 0.8655 -0.4150 0.2806
vn 0.6926 -0.2889 0.6609
vn 0.3514 0.0277 0.9358
vn 0.4549 0.0277 0.8901
vn 0.6409 0.6942 0.3277
vn -0.4298 0.7445 -0.5108
vn 0.4201 0.6857 0.5944
vn 0.7164 0.6946 0.0657
vn 0.1997 0.7078 0.6776
vn -0.3756 0.7469 0.5487
vn 0.4029 0.7474 -0.5282
vn 0.7322 0.6504 -0.2021
vn -0.0900 0.6765 0.7309
vn 0.5137 0.7240 -0.4604
vn -0.3417 0.6952 0.6324
vn 0.3012 0.6958 -0.6521
vn -0.5428 0.6834 0.4882
vn 0.0592 0.6598 -0.7491
vn -0.7007 0.6850 0.1996
vn 0.3959 0.7335 0.5524
vn 0.6776 0.7324 0.0667
vn -0.3627 0.6893 -0.6271
vn -0.6983 0.6751 -0.2380
vn -0.5951 0.6967 -0.4006
vn -0.7228 -0.6910 -0.0101
vn -0.6521 -0.6915 -0.3108
vn -0.0039 -1.0000 -0.0039
vn -0.6694 -0.7007 0.2466
vn -0.5040 -0.6923 -0.5164
vn -0.5024 -0.6922 0.5182
vn -0.2714 -0.6805 -0.6806
vn -0.2007 -0.6888 0.6966
vn 0.0591 -0.6737 -0.7367
vn 0.1377 -0.6804 0.7198
vn 0.4186 -0.6690 -0.6142
vn 0.4460 -0.6748 0.5880
vn 0.6481 -0.6638 -0.3732
vn 0.6502 -0.6739 0.3508
vn 0.7523 -0.6578 -0.0355
usemtl None
s 1
f 1/1/1 2/2/2 3/3/3
f 2/2/2 4/4/4 3/3/3
f 4/4/4 5/5/5 3/3/3
f 6/6/6 7/7/7 8/8/8
f 8/8/8 9/9/9 6/6/6
f 10/10/10 6/6/6 9/9/9
f 8/8/8 11/11/11 9/9/9
f 11/11/11 8/8/8 12/12/12
f 11/11/11 12/12/12 13/13/13
f 10/10/10 9/9/9 14/14/14
f 15/15/15 10/10/10 14/14/14
f 11/11/11 13/13/13 16/16/16
f 16/16/16 13/13/13 17/17/17
f 11/11/11 18/18/18 9/9/9
f 18/18/18 11/11/11 16/16/16
f 19/19/19 14/14/14 9/9/9
f 19/19/19 9/9/9 18/18/18
f 20/20/20 16/16/16 17/17/17
f 20/20/20 17/17/17 21/21/21
f 20/20/20 21/21/21 22/22/22
f 20/20/20 22/22/22 23/23/23
f 18/18/18 16/16/16 24/24/24
f 20/20/20 24/24/24 16/16/16
f 25/25/25 19/19/19 18/18/18
f 25/25/25 18/18/18 24/24/24
f 20/20/20 23/23/23 26/26/26
f 26/26/26 23/23/23 27/27/27
f 28/28/28 24/24/24 20/20/20
f 28/28/28 20/20/20 26/26/26
f 28/28/28 25/25/25 24/24/24
f 29/29/29 19/19/19 25/25/25
f 19/19/19 29/29/29 14/14/14
f 25/25/25 28/28/28 30/30/30
f 30/30/30 29/29/29 25/25/25
f 29/29/29 31/31/31 14/14/14
f 31/31/31 15/15/15 14/14/14
f 32/32/32 29/29/29 30/30/30
f 15/15/15 31/31/31 33/33/33
f 15/15/15 33/33/33 34/34/34
f 31/31/31 29/29/29 35/35/35
f 33/33/33 31/31/31 35/35/35
f 29/29/29 32/32/32 35/35/35
f 36/36/36 34/34/34 33/33/33
f 36/36/36 37/37/37 34/34/34
f 35/35/35 38/38/38 33/33/33
f 38/38/38 36/36/36 33/33/33
f 32/32/32 39/39/39 35/35/35
f 39/39/39 38/38/38 35/35/35
f 37/37/37 36/36/36 40/40/40
f 38/38/38 41/41/41 36/36/36
f 41/41/41 40/40/40 36/36/36
f 38/38/38 39/39/39 41/41/41
f 42/42/42 37/37/37 40/40/40
f 42/42/42 40/40/40 41/41/41
f 37/37/37 42/42/42 43/43/43
f 43/43/43 42/42/42 44/44/44
f 42/42/42 45/45/45 44/44/44
f 42/42/42 46/46/46 45/45/45
f 46/46/46 47/47/47 45/45/45
f 46/46/46 48/48/48 47/47/47
f 46/46/46 42/42/42 49/49/49
f 41/41/41 49/49/49 42/42/42
f 46/46/46 50/50/50 48/48/48
f 46/46/46 49/49/49 50/50/50
f 49/49/49 41/41/41 50/50/50
f 50/50/50 51/51/51 48/48/48
f 50/50/50 41/41/41 52/52/52
f 39/39/39 52/52/52 41/41/41
f 50/50/50 53/53/53 51/51/51
f 53/53/53 54/54/54 51/51/51
f 52/52/52 55/55/55 50/50/50
f 53/53/53 56/56/56 54/54/54
f 56/56/56 57/57/57 54/54/54
f 56/56/56 58/58/58 57/57/57
f 53/53/53 50/50/50 59/59/59
f 55/55/55 59/59/59 50/50/50
f 56/56/56 53/53/53 60/60/60
f 60/60/60 53/53/53 59/59/59
f 56/56/56 61/61/61 58/58/58
f 61/61/61 62/62/62 58/58/58
f 56/56/56 60/60/60 63/63/63
f 61/61/61 56/56/56 63/63/63
f 64/64/64 60/60/60 59/59/59
f 60/60/60 64/64/64 63/63/63
f 55/55/55 64/64/64 59/59/59
f 61/61/61 65/65/65 62/62/62
f 65/65/65 66/66/66 62/62/62
f 65/65/65 67/67/67 66/66/66
f 61/61/61 63/63/63 68/68/68
f 65/65/65 61/61/61 68/68/68
f 63/63/63 64/64/64 69/69/69
f 69/69/69 68/68/68 63/63/63
f 70/70/70 64/64/64 55/55/55
f 52/52/52 70/70/70 55/55/55
f 71/71/71 69/69/69 64/64/64
f 71/71/71 64/64/64 70/70/70
f 72/72/72 70/70/70 52/52/52
f 39/39/39 72/72/72 52/52/52
f 73/73/73 71/71/71 70/70/70
f 73/73/73 70/70/70 72/72/72
f 74/74/74 72/72/72 39/39/39
f 73/73/73 72/72/72 74/74/74
f 74/74/74 39/39/39 32/32/32
f 30/30/30 74/74/74 32/32/32
f 73/73/73 74/74/74 75/75/75
f 76/76/76 74/74/74 30/30/30
f 76/76/76 75/75/75 74/74/74
f 77/77/77 73/73/73 75/75/75
f 76/76/76 77/77/77 75/75/75
f 73/73/73 77/77/77 71/71/71
f 30/30/30 78/78/78 76/76/76
f 78/78/78 30/30/30 28/28/28
f 79/79/79 77/77/77 76/76/76
f 76/76/76 78/78/78 79/79/79
f 78/78/78 28/28/28 80/80/80
f 28/28/28 26/26/26 80/80/80
f 81/81/81 78/78/78 80/80/80
f 78/78/78 81/81/81 79/79/79
f 82/82/82 80/80/80 26/26/26
f 81/81/81 80/80/80 82/82/82
f 27/27/27 82/82/82 26/26/26
f 79/79/79 81/81/81 83/83/83
f 81/81/81 82/82/82 83/83/83
f 27/27/27 84/84/84 82/82/82
f 84/84/84 27/27/27 85/85/85
f 27/27/27 86/86/86 85/85/85
f 85/85/85 86/86/86 87/87/87
f 85/85/85 87/87/87 88/88/88
f 82/82/82 84/84/84 89/89/89
f 84/84/84 85/85/85 89/89/89
f 85/85/85 88/88/88 90/90/90
f 89/89/89 85/85/85 90/90/90
f 91/91/91 82/82/82 89/89/89
f 83/83/83 82/82/82 91/91/91
f 92/92/92 89/89/89 90/90/90
f 92/92/92 91/91/91 89/89/89
f 93/93/93 90/90/90 88/88/88
f 94/94/94 92/92/92 90/90/90
f 90/90/90 93/93/93 94/94/94
f 93/93/93 88/88/88 95/95/95
f 88/88/88 96/96/96 95/95/95
f 95/95/95 96/96/96 97/97/97
f 95/95/95 97/97/97 98/98/98
f 6/99/99 98/98/98 7/100/100
f 95/95/95 98/98/98 6/99/99
f 93/93/93 95/95/95 99/101/101
f 99/101/101 95/95/95 6/99/99
f 94/94/94 93/93/93 99/101/101
f 6/99/99 10/102/102 99/101/101
f 100/103/103 99/101/101 10/102/102
f 94/94/94 99/101/101 100/103/103
f 15/104/104 100/103/103 10/102/102
f 101/105/105 94/94/94 100/103/103
f 15/104/104 101/105/105 100/103/103
f 102/106/106 92/92/92 94/94/94
f 102/106/106 94/94/94 101/105/105
f 102/106/106 91/91/91 92/92/92
f 103/107/107 101/105/105 15/104/104
f 15/104/104 34/108/108 103/107/107
f 102/106/106 101/105/105 104/109/109
f 103/107/107 104/109/109 101/105/105
f 34/108/108 105/110/110 103/107/107
f 105/110/110 104/109/109 103/107/107
f 34/108/108 37/111/111 105/110/110
f 106/112/112 102/106/106 104/109/109
f 106/112/112 91/91/91 102/106/106
f 105/110/110 107/113/113 104/109/109
f 91/91/91 106/112/112 108/114/114
f 107/113/113 105/110/110 109/115/115
f 105/110/110 37/111/111 109/115/115
f 107/113/113 110/116/116 104/109/109
f 110/116/116 106/112/112 104/109/109
f 107/113/113 109/115/115 111/117/117
f 107/113/113 111/117/117 110/116/116
f 109/115/115 37/111/111 112/118/118
f 109/115/115 112/118/118 111/117/117
f 113/119/119 112/118/118 37/111/111
f 113/119/119 37/111/111 43/120/120
f 114/121/121 111/117/117 112/118/118
f 114/121/121 112/118/118 113/119/119
f 43/120/120 115/122/122 113/119/119
f 115/122/122 114/121/121 113/119/119
f 115/122/122 43/120/120 44/123/123
f 115/122/122 44/123/123 116/124/124
f 115/122/122 116/124/124 117/125/125
f 118/126/126 111/117/117 114/121/121
f 118/126/126 110/116/116 111/117/117
f 114/121/121 115/122/122 119/127/127
f 115/122/122 117/125/125 119/127/127
f 119/127/127 118/126/126 114/121/121
f 119/127/127 117/125/125 120/128/128
f 119/127/127 120/128/128 67/67/67
f 119/127/127 67/67/67 65/65/65
f 118/126/126 119/127/127 121/129/129
f 119/127/127 65/65/65 121/129/129
f 121/129/129 110/116/116 118/126/126
f 65/65/65 122/130/130 121/129/129
f 65/65/65 68/68/68 122/130/130
f 121/129/129 123/131/131 110/116/116
f 123/131/131 121/129/129 122/130/130
f 124/132/132 122/130/130 68/68/68
f 124/132/132 123/131/131 122/130/130
f 69/69/69 124/132/132 68/68/68
f 125/133/133 124/132/132 69/69/69
f 125/133/133 123/131/131 124/132/132
f 125/133/133 69/69/69 71/71/71
f 125/133/133 71/71/71 77/77/77
f 126/134/134 110/116/116 123/131/131
f 127/135/135 123/131/131 125/133/133
f 126/134/134 123/131/131 127/135/135
f 128/136/136 125/133/133 77/77/77
f 127/135/135 125/133/133 128/136/136
f 129/137/137 128/136/136 77/77/77
f 79/79/79 129/137/137 77/77/77
f 128/136/136 129/137/137 79/79/79
f 128/136/136 79/79/79 130/138/138
f 130/138/138 127/135/135 128/136/136
f 79/79/79 83/83/83 130/138/138
f 83/83/83 131/139/139 130/138/138
f 127/135/135 130/138/138 131/139/139
f 83/83/83 91/91/91 131/139/139
f 108/114/114 131/139/139 91/91/91
f 131/139/139 132/140/140 127/135/135
f 108/114/114 132/140/140 131/139/139
f 126/134/134 127/135/135 132/140/140
f 108/114/114 133/141/141 132/140/140
f 126/134/134 132/140/140 133/141/141
f 110/116/116 126/134/134 133/141/141
f 106/112/112 133/141/141 108/114/114
f 106/112/112 110/116/116 133/141/141
f 8/142/142 1/143/143 12/144/144
f 7/145/145 1/143/143 8/142/142
f 12/144/144 1/143/143 13/146/146
f 7/145/145 2/147/147 1/143/143
f 13/146/146 1/143/143 3/148/148
f 7/145/145 98/149/149 2/147/147
f 13/146/146 3/148/148 17/150/150
f 98/149/149 97/151/151 2/147/147
f 17/150/150 3/148/148 21/152/152
f 97/151/151 96/153/153 2/147/147
f 21/152/152 3/148/148 22/154/154
f 96/153/153 88/155/155 2/147/147
f 22/154/154 3/148/148 23/156/156
f 88/155/155 4/157/157 2/147/147
f 23/156/156 3/148/148 5/158/158
f 88/155/155 87/159/159 4/157/157
f 27/160/160 23/156/156 5/158/158
f 87/159/159 86/161/161 4/157/157
f 86/161/161 27/160/160 5/158/158
f 86/161/161 5/158/158 4/157/157
f 58/162/162 62/163/163 134/164/164
f 57/165/165 58/162/162 134/164/164
f 62/163/163 66/166/166 134/164/164
f 54/167/167 57/165/165 134/164/164
f 66/166/166 67/168/168 134/164/164
f 51/169/169 54/167/167 134/164/164
f 67/168/168 120/170/170 134/164/164
f 48/171/171 51/169/169 134/164/164
f 120/170/170 117/172/172 134/164/164
f 47/173/173 48/171/171 134/164/164
f 117/172/172 116/174/174 134/164/164
f 45/175/175 47/173/173 134/164/164
f 116/174/174 44/176/176 134/164/164
f 44/176/176 45/175/175 134/164/164
